<svg width="40" height="40" viewBox="0 0 40 40" fill="none" xmlns="http://www.w3.org/2000/svg">
<path d="M32.1167 8.88335C29.9 7.85002 27.5 7.10002 25 6.66669C24.956 6.66731 24.9141 6.68528 24.8833 6.71669C24.5833 7.26669 24.2333 7.98335 24 8.53335C21.3483 8.1336 18.6517 8.1336 16 8.53335C15.7667 7.96669 15.4167 7.26669 15.1 6.71669C15.0833 6.68335 15.0333 6.66669 14.9833 6.66669C12.4833 7.10002 10.1 7.85002 7.86666 8.88335C7.84999 8.88335 7.83333 8.90002 7.81666 8.91669C3.28333 15.7 2.03333 22.3 2.64999 28.8334C2.64999 28.8667 2.66666 28.9 2.69999 28.9167C5.69999 31.1167 8.58333 32.45 11.4333 33.3334C11.4833 33.35 11.5333 33.3334 11.55 33.3C12.2167 32.3834 12.8167 31.4167 13.3333 30.4C13.3667 30.3334 13.3333 30.2667 13.2667 30.25C12.3167 29.8834 11.4167 29.45 10.5333 28.95C10.4667 28.9167 10.4667 28.8167 10.5167 28.7667C10.7 28.6334 10.8833 28.4834 11.0667 28.35C11.1 28.3167 11.15 28.3167 11.1833 28.3334C16.9167 30.95 23.1 30.95 28.7667 28.3334C28.8 28.3167 28.85 28.3167 28.8833 28.35C29.0667 28.5 29.25 28.6334 29.4333 28.7834C29.5 28.8334 29.5 28.9334 29.4167 28.9667C28.55 29.4834 27.6333 29.9 26.6833 30.2667C26.6167 30.2834 26.6 30.3667 26.6167 30.4167C27.15 31.4334 27.75 32.4 28.4 33.3167C28.45 33.3334 28.5 33.35 28.55 33.3334C31.4167 32.45 34.3 31.1167 37.3 28.9167C37.3333 28.9 37.35 28.8667 37.35 28.8334C38.0833 21.2834 36.1333 14.7334 32.1833 8.91669C32.1667 8.90002 32.15 8.88335 32.1167 8.88335ZM14.2 24.85C12.4833 24.85 11.05 23.2667 11.05 21.3167C11.05 19.3667 12.45 17.7834 14.2 17.7834C15.9667 17.7834 17.3667 19.3834 17.35 21.3167C17.35 23.2667 15.95 24.85 14.2 24.85ZM25.8167 24.85C24.1 24.85 22.6667 23.2667 22.6667 21.3167C22.6667 19.3667 24.0667 17.7834 25.8167 17.7834C27.5833 17.7834 28.9833 19.3834 28.9667 21.3167C28.9667 23.2667 27.5833 24.85 25.8167 24.85Z" fill="#072F6D"/>
</svg>
